/* XPM */
static char *result[] = {
/* columns rows colors chars-per-pixel */
"64 64 247 2 ",
"   c #010202",
".  c #060107",
"X  c #1C1A15",
"o  c #1B1C1B",
"O  c #161817",
"+  c #150D0A",
"@  c #291E0E",
"#  c #281D06",
"$  c #221C1B",
"%  c #261C14",
"&  c #321B0D",
"*  c #1A211E",
"=  c #1C200F",
"-  c #24210C",
";  c #2A230B",
":  c #362B0E",
">  c #38340D",
",  c #23221D",
"<  c #2B2619",
"1  c #3C2C14",
"2  c #3E2D1A",
"3  c #352616",
"4  c #3C3317",
"5  c #1D1E21",
"6  c #1F1722",
"7  c #241D22",
"8  c #1D2223",
"9  c #1E2E24",
"0  c #1D302B",
"q  c #242424",
"w  c #292524",
"e  c #2C2A25",
"r  c #2A262A",
"t  c #262A2B",
"y  c #2C2B2C",
"u  c #25262A",
"i  c #322C25",
"p  c #322C2C",
"a  c #362824",
"s  c #2B3329",
"d  c #36332A",
"f  c #2C2D32",
"g  c #272831",
"h  c #342B34",
"j  c #2C3534",
"k  c #333333",
"l  c #3B3938",
"z  c #680203",
"x  c #740101",
"c  c #7C0101",
"v  c #7C010A",
"b  c #760308",
"n  c #770211",
"m  c #4B370C",
"M  c #422C18",
"N  c #4C3A15",
"B  c #43331B",
"V  c #483716",
"C  c #533C16",
"Z  c #553C1C",
"A  c #5A3B1D",
"S  c #583814",
"D  c #4A3209",
"F  c #62391E",
"G  c #493923",
"H  c #573B24",
"J  c #463C35",
"K  c #412B20",
"L  c #623C26",
"P  c #3B4439",
"I  c #59421B",
"U  c #4F4210",
"Y  c #66461C",
"T  c #774A1D",
"R  c #735018",
"E  c #594422",
"W  c #4C443B",
"Q  c #494538",
"!  c #55493A",
"~  c #4E4F37",
"^  c #6A4924",
"/  c #744C25",
"(  c #7A4D26",
")  c #744C29",
"_  c #7B4C2B",
"`  c #764524",
"'  c #6A5329",
"]  c #7D512C",
"[  c #775426",
"{  c #774C32",
"}  c #765535",
"|  c #463942",
" . c #3D4945",
".. c #4A4945",
"X. c #544B44",
"o. c #5B5347",
"O. c #585957",
"+. c #48504E",
"@. c #665B4B",
"#. c #6B5D4C",
"$. c #635745",
"%. c #685C53",
"&. c #6B594A",
"*. c #6D624D",
"=. c #69624A",
"-. c #72644D",
";. c #73694D",
":. c #78674D",
">. c #6D6353",
",. c #6E6A56",
"<. c #726552",
"1. c #756A54",
"2. c #796C54",
"3. c #73665A",
"4. c #746B5A",
"5. c #796C5B",
"6. c #796654",
"7. c #7A7156",
"8. c #6A5C67",
"9. c #636364",
"0. c #6B6E6C",
"q. c #757366",
"w. c #787877",
"e. c #70706C",
"r. c #5B615E",
"t. c #323D41",
"y. c #840101",
"u. c #8C0101",
"i. c #84030B",
"p. c #8C010A",
"a. c #890902",
"s. c #930101",
"d. c #9B0101",
"f. c #9B0109",
"g. c #930409",
"h. c #880212",
"j. c #A20101",
"k. c #A70106",
"l. c #9C4B01",
"z. c #974902",
"x. c #965403",
"c. c #834F1F",
"v. c #A14B01",
"b. c #A64C07",
"n. c #B35802",
"m. c #824C2C",
"M. c #884B28",
"N. c #82522C",
"B. c #85592E",
"V. c #8A5B2E",
"C. c #8B5429",
"Z. c #935A2C",
"A. c #845432",
"S. c #8B5634",
"D. c #865A33",
"F. c #8C5C33",
"G. c #8A593A",
"H. c #925C35",
"J. c #945A37",
"K. c #894D36",
"L. c #A15B36",
"P. c #96633A",
"I. c #8B622F",
"U. c #A5693E",
"Y. c #A8683D",
"T. c #B16C3C",
"R. c #BF6006",
"E. c #CA6506",
"W. c #CB5909",
"Q. c #985B44",
"!. c #86785E",
"~. c #966341",
"^. c #AA6941",
"/. c #A96743",
"(. c #AC6B46",
"). c #867A64",
"_. c #8B7C65",
"`. c #857B6A",
"'. c #8B7D6A",
"]. c #887664",
"[. c #927E6B",
"{. c #85747B",
"}. c #798870",
"|. c #FEEC01",
" X c #FEEF0E",
".X c #FDF402",
"XX c #FDF903",
"oX c #F6F605",
"OX c #F6F20F",
"+X c #8D816B",
"@X c #8B8166",
"#X c #93836C",
"$X c #948669",
"%X c #938571",
"&X c #9A8A73",
"*X c #908B78",
"=X c #A3927B",
"-X c #F5A65A",
";X c #FCAA66",
":X c #FF8E24",
">X c #797B84",
",X c #837C83",
"<X c #7E8A88",
"1X c #8B8B8B",
"2X c #888A89",
"3X c #94888A",
"4X c #8C8C95",
"5X c #8A9798",
"6X c #989897",
"7X c #8E908D",
"8X c #A89985",
"9X c #A5989A",
"0X c #97A097",
"qX c #AEA598",
"wX c #9DA9A9",
"eX c #99B0AA",
"rX c #A4A5A5",
"tX c #A4ABAB",
"yX c #ABABAB",
"uX c #A9A6A7",
"iX c #B4ABA8",
"pX c #A9AAB4",
"aX c #B8ACB5",
"sX c #ABB5B6",
"dX c #B4B4B4",
"fX c #BCBCBC",
"gX c #B7B6B8",
"hX c #AFB5AA",
"jX c #A69BA7",
"kX c #C5BCBA",
"lX c #D0BEBC",
"zX c #BBC2BA",
"xX c #A5C0B7",
"cX c #C4C2BE",
"vX c #BBB8C2",
"bX c #C4BCC3",
"nX c #C9BECD",
"mX c #BDC2C3",
"MX c #B7C5C5",
"NX c #AAC4C1",
"BX c #C2C2C2",
"VX c #CBCBCC",
"CX c #CAD3D5",
"ZX c #D3D2D3",
"AX c #D2CDD0",
"SX c #FBFDD4",
"DX c #E1CCD6",
/* pixels */
"P.H.H.G.C.) A.c.B.} L.S.D.P.T.m.H.D.M.' N.M.G.B.( ] A.m.m._ N.) _ ] / D.] P.N.S.A.{ G.G./ M.] ^ K.' ( ) _ / [ C.L.m.I.V.N.K.H./ ",
"` / S Q I m d E S H I V m I ^ ^ ) E F H V E H V V N I C Z Z E Z ^ A N V V N Z A S U Z ^ V F S H ^ Z U G E S V ! H V U H U I Y A ",
"> 1 1 > D V V K 4 4 V D 2 a B : 1 G V : 1 : 4 D 2 2 4 1 1 1 1 1 4 1 B : 4 : : 4 1 : 1 1 4 1 G 3 1 G m M : 3 V M B > : K : a D 4 ",
"H L H F -   ;X|.SX.   .XXX.X.X.X.X|..XXX.X.XXXXXXX.XXXXXXXXX.X.X.X.X.X.XXX.X.X.X.XoX.X|.XXoXoX.X.XoX X XXX    SX|.-X<   L G ^ { ",
"Y F.[ C.V : W.E.OX` +     l.z.l.l.x.l.v.l.l.l.l.l.l.l.v.l.l.l.v.x.l.l.l.z.l.l.b.v.v.x.x.x.z.b.l.l.x.v.. .   ^ -XW.E.D % T.[ V.I.",
"[ [ } D.I - F.Y :X4 s.p.y..   e f u j e r a k 0 f f y y e e e y e w p y y y y y h r r p r y h f h     s.u.s.H E.U H H : U.` Q.V.",
"( H.` ] H @ ^.` F.T d.u.i.u.c c q.z n b z c y.c y.y.u.s.s.g.s.u.a.y.y.x c x x x x z y.c x p.i.}.s.k.u.j.i.x ' F.Z.N.L # U.D.V.B.",
"_ B.) F.Z # Y.) G.) s.y.u.p.c r.aX1X= z x c c c y.u.s.s.d.j.s.u.s.u.u.y.c c x z z x c y.v i 6XbX,Xu.d.k.c a.T J.S.[ N - (.Z.J.N.",
") B.) V.A - Y.) H./ j.u.v s.b 7 sXpX4XX z y.c x a.s.u.s.u.d.d.a.p.y.u.x y.n z x z x c x 3 wXbXvXl d.s.s.u.p.( F.J.V.Z - ^.F.J.m.",
") B.) V.A - ^.) F.' d.u.u.c o.7 | uXrXiXs i.c c y.c u.d.s.d.f.c y.u.u.x y.p.z z x z n d aXMXMXX.J }.d.s.u.y.' C.H.V.Z % /.V.J.N.",
") B.) D.A @ /./ F.) g.u.s.h.7XsX%.k iXtXtXP v c s.s.c j.s.d.k.y.s.y.y.c c x x x x v P gXdXkX+.w.VXwXs.d.u.u.' H.H.Z.I ; Y.I.S.] ",
"_ C.) A.Z - Y.) J./ d.c y.< ..sXsX6Xo.4XpXgX%.x y.i.y.d.s.s.k.c y.u.y.c u.c c z x +.sXvX3Xe.dXfXVX8.Q s.u.c ) L.H.V.Z - ^.V.D.] ",
") B.) V.A @ /.) P.( j.y.u.6X4XO.uXyXwX3X9.hXaX3Xk u.y.f.f.d.s.a.a.y.i.c v x b * 3XiXdXe.9XMXmXdXw.uXeXj.g.y.` P.J.I.Z @ (.I.S.( ",
") V.) D.Z - Y./ P.Y s.u.p.q.dXgXuX1X5XyXqXiXdXsXfXo.p.d.u.d.s.d.y.u.s.x x i.d jXwXwXiXdXsX6X6XdXZXAX>Xj.c g.' C.H.F.Z @ /.V.D.) ",
") C.) B.A - ^./ D.M.s.i.w...%.sXgXtXjX2XO.hXsXfXcXvX6Xf.s.f.p.y.y.y.s.x i.*XrXyXtXiXhXO.4XbXvXcXCXw.O.1Xa.y.m.] G.P.H @ ^.V.K./ ",
") B._ D.A - ^./ S.' s.u.BXmXgX4X1Xe.7XuXtXgXiXdXMXMXbX*Xj.d.f.+.e.w.s h.q.sXpXtXrXuXgXdXdXyX2X6XyXZXAXZXu.y.E ` N.B.H ; ^.F.m./ ",
"( B.( A.Z @ Y.) Z._ a.u.t.6XiXgXdXyX4X0.X.dXgXgXBXkXlXwXd.j.4XfXfXBX8Xc 4XgXtXtXuXtXgXO.0.fXfXBXCXDXuX .u.y.E ( m.A.A @ Y.H.] ) ",
"m.D.) D.Z ; Y.) F.^ j.y.,X0...O.7X4XuXuXyXdXgXdXzXMXMXO.s.~ VXcXmX>Xn a.P yXiXtXuXyXyXgXgXfXgX6Xw.r.w.3Xs.u.A ^ _ } H ; Y.F.{ ( ",
"N.D.( A.Z ; Y.) P._ d.a.vXvXdXgXuX7X0.O.2XgXdXdXBXcXtXd.d.e.CXbXcX9.u.c y.6XqXtXyXrXfX2XO.w.6XdXAXAXVXCXs.y.E m.( ] Z # Y.D._ / ",
"N.A./ D.Z @ Y.) V.^ j.i.h 0XyXrXyX6X2X1XO.dXdXdXbXvX0.d.s.w.ZXzXcX9.h.c v O.rXiXrXuXdX9.7X6XyXfXkXMXwX+.y.u.Z ^ / [ H @ U.D.) / ",
"m.B.) D.Z @ Y.) D.[ s.i.w.0.e.7XyXuXyXyXrXdXfXyXmXbXmXQ  .DXZXzXzXcXd i.y sXyXuXyXyXgXdXdXfXfXdXiX<X{.2Xa.i.A / ) ) Z ; Y.B.) / ",
"_ N.( G.S @ ^.) J.` u.p.8XbXdXaXdX6X1X9.2XdXdXgXzXBXzXZXDXCXtX..dXcXVXiXgXaXrXtXrXyXdX2Xw.6XdXbXAXAXZXqXs.x C m./ / H - U.] ) / ",
"A.] / D.Z @ Y.) F.] d.a.v +.e.r.O.O.0.6XyXyXfXgXBXcXfXCXAXzX .>XrXtXvXaXgXgXhXuXyXrXgXdXwX2Xw.e.w.1XO.u.a.u.E ^ ) ) H - ^._ ) / ",
"A.B./ D.S ; ^.) S.m.s.i.g.k 1XdXdXuXyX2Xy 6XyXdXkXkXmXCXgXaXj 9.p f iXxXiXgXrXrXuXyX2Xl 7XBXgXBXAXyX+.j.u.y.H / ) / H - U.) ) / ",
"V._ _ B.Z @ ^.^ J.' d.u.y.v &.0X6X9.t.O.7XgXdXsXBXBXBXAXl 7X0.e 9.*Xl dXgXdXrXyXpXwXgXrX9.+.w.yXhX`.g.d.y.u.U ( ) / Z @ Y./ ) ( ",
"V._ / B.Z @ ^./ L.' d.u.s.s.v n - %.wXpXtXw.dXiXuX6X9.VXdXk l 9.l 0XyXhXdXO.2X1X6XqXq.sXgXMX>X< f.g.d.d.y.y.Z { ) ) Z @ ^.) ) ] ",
"F._ ( B.H @ ^./ F.^ d.y.a.a.c c 4XpX7XX.7XaXuX* q ..rXAXVXgXdXw.f yXfXfXdX7Xl   $ 5XvX2XO.iXkXjXj.j.a.d.u.p.E } ] ( Z @ ^./ _ _ ",
"I.) ` B.Z @ ^./ P.) j.u.y.y.x c v z a wXrX6Xt 6 ..zXfXVXZXVXfXw pXfXvXdXgXyXyXy . 8 6XhXtX..u.y.s.g.u.d.s.y.S M.N.] Z @ U./ ( ] ",
"F._ / B.A @ ^./ V./ d.u.p.u.c y.i.X 3X5X8.0.$ 8 rXBXBXZXZXuXZXfXcXBXgXdXdXdXrX7X  X ,.w.rX9X0 s.k.j.d.g.u.y.I Z.D.N.Z - U./ ) B.",
"F._ ( B.Z @ U./ Z.) s.y.y.y.v c c z x v l vX| * bXmXBXVXZXr.VXbXBXw.u dXgXdXrXyXo J gX .c a.x u.u.u.s.s.p.p.I D.S.m.Z @ ^.^ ( D.",
"V.{ ( B.Z @ U./ H./ s.u.s.u.i.x x n O.yX+.<X{.= tXmXBXZXdXO.VXVXfXrXu 6XgXfXdX2Xo 9.4XO.vX0.g.u.j.d.d.d.u.y.^ P.J.N.Z @ ^./ N.S.",
"C.) ] B.H @ ^./ P./ s.y.y.y.c y.c - rXwXyXe.5X* p e.BXVXO.2XZXfXBXBXf l gXiX+.o o 2X0.sXdXkXl a.s.s.s.d.u.c ` F.F.C.H - U./ A.F.",
") [ ( S.A ; Y.^ J.M.d.u.y.y.c v x x z X.j 5XdXdXgXnXNX%.d.hXAXMXMXcX..c J dXpX6XeXiX6XJ +.s.y.u.f.p.d.d.h.s.( I.I.C.S < Y.c.[ G.",
"S./ m.D.Z % /.) I.[ d.u.s.s.p.x c n , 5XiX6X3XaX..X.s.d.s.BXDXzXnXkXw.v n x J k pX7X3XaXtXj u.u.s.d.f.s.y.y.) F.D.~.C - /.K.F.Z.",
"m.` N.C.H < /./ I.G.s.y.v i.c c x z 7 6X*Xn Q sX0.h.x k.a.2XZXcXzXiX~ c c x n +.jXj b 5XqXk y.y.s.d.d.d.h.c M.H.V.J.Z ; /.m.F.J.",
"_ ^ B.B.U # /./ Z.( d.p.u.a.c i.u.z z v z v c O.y.i.u.d.j.d.O.w...p.u.c v c x z O.x y.c v u.y.u.f.s.d.d.s.c R J.P.G.Z ; U.H.V.~.",
"^ ) I.S.Z - T.[ Q._ s.u.s.y.c v y.x z x x c b v u.s.p.s.g.s.s.p.h.c p.c c u.z b z z x c x y.f.c s.d.s.s.i.c ' G.B.V.N @ Y.H.D.D.",
"( ) J.C.H < /.^ SXm.s.c h.    g f t y a y h e e s e k 9 f i h e < p f 0 k e r g k p f t f i < j h     d.u.s.{ SX] ~.U 3 (.J.J.V.",
"( / J.C.C 7 -X.XSX-X  +   oX.X.X X.XXX|.oXoXXXXXXX.XOX|.oXXX.XoX.XXX.X.X|.oXoXXX|..X|. XXXXXoX.X.XXX X  +   XXSX|.-XE ; ^.H.Z.( ",
") { I._ Z # E.R.oX  . z.l.z.v.l.x.l.l.l.x.l.l.v.z.l.v.z.l.l.l.l.l.z.x.l.z.b.v.l.x.l.l.x.l.l.l.z.l.l.l.x.z..   ;XE.E.m % Y.I.G.A.",
"_ ] A._ _ ) _ / A.N.P._ S.N.m.V.F._ A.{ ` ] ) _ ) ] ) ] G.~._ J.D._ N.~.T J.J.J.F.B./ _ _ S.D.Q.D.S.~.(.m.P.G.] { A.( G.A.( _ G.",
"E Z N I I ^ I V V Z V Z E C C U I m C E C ^ A I m Z V S Z I m Z A S F I Y ^ ) S E Z C Z Z Z S Y m m A ' A ^ Y S N N Z I Z m N Z ",
"3 2 M B 2 B 4 G 2 3 3 B 2 1 a d B 1 1 B 1 1 1 Z 4 4 2 B B 1 1 1 4 1 4 4 B : 4 1 B 2 B B > 1 V B B 1 4 B M : B B B 1 1 B B B 1 V ",
"e w w , w w e r e w w 7 w f t t g y t q y e r q t u q r r u p y t t u e s u u r r y y 7 u t q t g t w q w p w w e r 7 u u r y y ",
"'.[.'.#X_.'.].'.].+X1.$.<.! < e p o.$.*.*.'.'.'.).+X+X'.+X'.`.).'.[.#X].]._.[.].'.].2.#.%.o.i p h o.@.=.<.].'.[.].#X'._.'.].[.].",
"3.>.$.>.3.5.#.o.%.>.o.-.%...e y e X.4.;.<.*.5.).7.7.4.$.@.;.4.;.#.6.].'.!.[.[.'.;.1.-.-.4.W X r w X.@X7.].'.%X)._.8X#X#X].&X=X[.",
"3.6.-.*.-.#.#.#.@.].<.>.>.Q = j p ! ;.!.2.6.-.2.;.:.6.6.#.:.1.;.2.-.2._.!.'.6.-.$.o.#.-.4.W $ k p ~ 4.-._.&X8X$X$X$X:.&X_.!._.$X",
"].6.;.! >.=.4.<.-.1._.<.@.W * t p ..+X;.@X4.+X!.%X1.<.4.! o.@.4.'.<.'.<.].'.].'.4.@.*.$.>.Q , t f X.*.@X6.8X8X8X_.#X&X_.].2.[._.",
"`.1.'.3.*.-.6.:.3.3.#X<.3.W , r y X._.:.].6.%X@X_.@X6.*.o.#.! '.@X].1.;.1.@X@X4.%X].3.! 3.Q , y f X.'._._.8X8X8X8X_.'.'.'.6.).;.",
"7.=.7.$.$.<.>.4.2.=.;.;._.J q s y X.'.$X_.4.).;.2.-.1.1.@.4.@.@.*.<.1.6.1.;.!.:.;.7.:.*.#.Q * y r X.$X$X#X'.8X8X=X[.:._.@X:.2.).",
"1.'.<.4.>.o.3.%.!.7.;.).8XW q u w W #X#X1.4.1.1.!.4.4.%.#.o.W X.X.3.>.5.-.'.&X#X;.@X4.2.@.Q w h r X.'.!.&X`.@X+X$X=X%X1.,.5.+X4.",
"*.<.@X)._.$X;.7.#X+X@X#X`.W $ h i o.*.'.!.1.,.;.;.;.1.=.@.6.>.@.=.@.~ 1.1.;.!.$X%X].'.].'.J 7 r p W `.-.2.'.q.%X8X&X$X$X:._.6._.",
"7 o 7 X X p e < i < 2 Q W Q $ e u ..Q Q d < i e d $ X o $ X X $ O o $ X o e e r < d i ~ Q Q < s s W W ! d < < 3 w o o + , X O X ",
"O O o o O O 8 5 5 5 5 8 o o 8 t j O 7 o o * O 5 O o 8 O q o * O o o $ O X 8 o o q O 5 X * o O u t o o o X * o * 5 7 5 o O q X o ",
"r y u y y y r r r r q r r q y e w e e r w < e w f q u r u u g g y r h 7 p w w e r r h q , e y p s u p r w w q u u w u y f 8 f 0 ",
"i o.@.@.<.].'._._.+X_.].'.'.'.'.`.[.'.'.+X`.].'.).+X-.&.@.o.w p e o.O.>.*.'._._._.].'.'.#X].+X_._.'.].'.@X@X@X@X'.'.<.$.%.o.a r ",
"e Q 4.;.@X4.].'.&X]._.#X@X!.1.1._.].+X1.@.$.4.@.1.;.6._.'.W o e i X.`.2.'.3.1.-.4.@X$X$X[.#X@X:.1.).+X-.2.4.*.@.1.).@X2.$XQ $ f ",
"y X.4.4.*._.2.#X[.8X8X#X5.6.5.1.-.+X-.+X4.$.<.1.4.).2.$X`.W , y w X.>.1.<.#.5.1.*.1.%X_.[.'.).).4.).<.2.-.5.<.1.4.<.1.!.%X! X k ",
"y X.3.&.4.).6.$X$X&X&X$X-.@X*.=.-.5.*.4.'.=.*.)._.@X:.&X'.Q , f y X.X.;.5.*.*.3.7.1._.5.].].;.2.5.1.@.1.1.<.4.*.'.4.6.@X<.J w t ",
"p ..$.! 1.! $X@X$X_.=X$X:.-.@.<.#.4.2.=.:.'.*.2._.!.&X@X-.Q $ j f X.4.1.*.1.>.$.@.@.<.6._.+X2.=.*.! 5.$.1.].2.6.[.].6.+X'.Q , y ",
"y X.5.o.6.1.;.].#X%X%X=X$X1.<.! o.3.#.%X1.'.;.2.'.]._.!.7.Q , u y W $.-.1.=.! <.@.*.#.@.).4.).7.-.$.*.-.*._._.].@X$X2.#.#.J w y ",
"e X.%.#.o.>.4.5.].@X1.@X,.4.1.>.@.>.3.`.3.'.+X4.5.'.<.$X).J $ p p W 3.o.*.o.3.! >.>.o.@.4.>.`.'.3.4.@.4.>.5.#X'.#X2.).'.>.W X h ",
"y W X.J d d w < e $ o o o o X o $ X X $ X i i < < e d Q W X.$ y e ..W W s e e i , q O , , X o X * + , X $ e < i < < d Q W ..$ f ",
"t $ X $ o O * o o 8 o o o o 5 o o 8 6 o o o o o * X $ o o X * u j X X , o o o X o O 8 O o o o 5 o 8 o 6 5 5 7 o o q X o $ X * e "
};
