/* XPM */
static char *result[] = {
/* columns rows colors chars-per-pixel */
"64 64 242 2 ",
"   c #020202",
".  c #0A0102",
"X  c #010903",
"o  c #01020B",
"O  c #0A010A",
"+  c #01090A",
"@  c #0A0A00",
"#  c #140405",
"$  c #1A190A",
"%  c #020212",
"&  c #030617",
"*  c #131515",
"=  c #1C1A15",
"-  c #14161B",
";  c #1C1B1C",
":  c #191618",
">  c #0B1711",
",  c #241C05",
"<  c #231C0B",
"1  c #2B1D0C",
"2  c #291807",
"3  c #331E0C",
"4  c #241D13",
"5  c #2B1D14",
"6  c #241C1A",
"7  c #25181A",
"8  c #351B15",
"9  c #380000",
"0  c #1D250B",
"q  c #1E2718",
"w  c #232305",
"e  c #2B2205",
"r  c #24230C",
"t  c #2A240C",
"y  c #2B2905",
"u  c #33240B",
"i  c #362909",
"p  c #37330B",
"a  c #242213",
"s  c #2B2414",
"d  c #2D2A15",
"f  c #2C231A",
"g  c #2C2A1B",
"h  c #252718",
"j  c #342414",
"k  c #332A15",
"l  c #3B2C13",
"z  c #342B1C",
"x  c #3B2C1C",
"c  c #35261A",
"v  c #3C3213",
"b  c #393419",
"n  c #2F341E",
"m  c #1A1723",
"M  c #271927",
"N  c #1E2E2C",
"B  c #2C2B23",
"V  c #2D2B2B",
"C  c #282725",
"Z  c #332B23",
"A  c #332B2B",
"S  c #392B28",
"D  c #2A352A",
"F  c #343224",
"G  c #3B3424",
"H  c #35342C",
"J  c #3B332C",
"K  c #373B27",
"L  c #2B2C34",
"P  c #352B35",
"I  c #2B3435",
"U  c #343433",
"Y  c #3C3434",
"T  c #35343A",
"R  c #3C3C3C",
"E  c #373838",
"W  c #420101",
"Q  c #4C0105",
"!  c #550201",
"~  c #5B0202",
"^  c #5D010A",
"/  c #650102",
"(  c #6C0101",
")  c #670808",
"_  c #730101",
"`  c #7D0102",
"'  c #790308",
"]  c #710510",
"[  c #46350D",
"{  c #442C1A",
"}  c #443413",
"|  c #43341B",
" . c #4B3A1B",
".. c #473917",
"X. c #543C1D",
"o. c #573B17",
"O. c #462D0D",
"+. c #683E1C",
"@. c #483928",
"#. c #553D28",
"$. c #473B35",
"%. c #563E34",
"&. c #452D2B",
"*. c #3A4233",
"=. c #4C4118",
"-. c #54431A",
";. c #49442B",
":. c #52432D",
">. c #574425",
",. c #4B4433",
"<. c #4C443B",
"1. c #474838",
"2. c #544332",
"3. c #554639",
"4. c #58563F",
"5. c #654725",
"6. c #6A4C31",
"7. c #644C1E",
"8. c #393642",
"9. c #332C40",
"0. c #4A3B42",
"q. c #484644",
"w. c #564947",
"e. c #595546",
"r. c #575757",
"t. c #504E54",
"y. c #635548",
"u. c #66524A",
"i. c #666666",
"p. c #767877",
"a. c #727070",
"s. c #66615E",
"d. c #840101",
"f. c #8B0101",
"g. c #8C0309",
"h. c #940101",
"j. c #9C0101",
"k. c #96040A",
"l. c #940212",
"z. c #A50101",
"x. c #AB0101",
"c. c #AC010B",
"v. c #A60507",
"b. c #B30101",
"n. c #BB0101",
"m. c #B8020B",
"M. c #AD0213",
"N. c #9D3E00",
"B. c #C40101",
"V. c #CB0101",
"C. c #C40209",
"Z. c #C90507",
"A. c #D40101",
"S. c #DD0102",
"D. c #D50408",
"F. c #CB0013",
"G. c #E30101",
"H. c #EC0101",
"J. c #E8030A",
"K. c #F40101",
"L. c #FC0101",
"P. c #F10109",
"I. c #FD0606",
"U. c #F40115",
"Y. c #FB2124",
"T. c #944B01",
"R. c #9C4B02",
"E. c #974600",
"W. c #975203",
"Q. c #9F4F12",
"!. c #A14C00",
"~. c #A3480A",
"^. c #A45006",
"/. c #CF5E00",
"(. c #CA6203",
"). c #877875",
"_. c #778179",
"`. c #FD881D",
"'. c #FCED02",
"]. c #F5F501",
"[. c #FDF401",
"{. c #FEF707",
"}. c #F9F510",
"|. c #FBA759",
" X c #7F7387",
".X c #798184",
"XX c #898B89",
"oX c #949586",
"OX c #979999",
"+X c #8E938C",
"@X c #A29597",
"#X c #9BA794",
"$X c #ABAC99",
"%X c #979BA7",
"&X c #9CA8A7",
"*X c #9EB2B0",
"=X c #A5A5A4",
"-X c #ABA5A5",
";X c #ABABAB",
":X c #A6AAA8",
">X c #B2A6A8",
",X c #BDBDBD",
"<X c #B6B8B6",
"1X c #ADB2AC",
"2X c #B39FA1",
"3X c #C3BABB",
"4X c #B9C3BA",
"5X c #CEC4B9",
"6X c #BBB9C4",
"7X c #C4BEC3",
"8X c #BCC5C3",
"9X c #CDCDCC",
"0X c #C3C4C4",
"qX c #D1CECD",
"wX c #DBC7CA",
"eX c #CBD6CA",
"rX c #D4D2CC",
"tX c #CACAD1",
"yX c #D4CDD4",
"uX c #D2D2D3",
"iX c #DCDCDB",
"pX c #D8D9D6",
"aX c #CBD4D8",
"sX c #E4D9D5",
"dX c #D7E3D7",
"fX c #E7E5DB",
"gX c #FCF8D3",
"hX c #DBDDE3",
"jX c #C5D0E4",
"kX c #E4DDE1",
"lX c #DDE7E6",
"zX c #E4EBEA",
"xX c #ECECEC",
"cX c #E9E8E7",
"vX c #F4E9E8",
"bX c #E8F2EB",
"nX c #FAF9E5",
"mX c #ECEBF3",
"MX c #F6E9F4",
"NX c #EAF6F5",
"BX c #FCFCFD",
"VX c #F7F7F7",
/* pixels */
"  e a 1 e , c e i { a 8 y &.l i j x x k b b l } 8 | l u 6 e ;   r 1 s u a v i O.{ F b v | k e 4 5   o 3 r 8 v l E $.j y i 7   . ",
"  a V l @...gXw...} 8.K O.>.:.o.1.,.;.%.2.2.#.>.,.,.1.,.B t ;   1 j J x w.#.:.:.:.+.-.6.2.$.$.c e ;   $ k E I w.gXR *. .T Z 0   ",
"  5 $.|.{.nXgX`.  . [.[.[.].{.'.[.[.[.[.[.[.[.[.].{.].[.{.'.{.[.].[.].[.].[.'.[.[.{.{.}.].{.[.].].}.{.[.].    gXgX].}.|.D o.c $ ",
"  G 4./.(.(.{.E.5.X     W.W.T.~.R.R.T.T.W.!.R.R.!.N.W.!.E.R.E.W.T.R.T.^.T.!.T.E.Q.R.T.E.~.E.W.!.R.~.T.!.. @ 5.R.|./././.*.%.x e ",
"+ 8 e.u.I b `.a d A.S.A.    P N P V V V V A L D D A B N L L U C L A L L S Z I D L B D L B L L Z V 9.  O d.d.*.D (. .D 3.$.y.v < ",
". k w.u.5.n Y  .| H.U.I.P.n.m.h._ / Q W W W 9 9 ~ d.` 5XX ,X  X   XX  XX/ ~ W 9 W Q / ` z.B.A.B.b.d._ / ! ` { -.K q.*.1.,.2.e 7 ",
"o P u.e.D  .@.[ ..H.L.K.H.S.V.V.z.h._ / ( ` f.h.k.n.V.vX  mX      eX  0Xz.h.d.` f.j.z.b.. BX  +   rX# h.' ] [ [ ,.E 2.q.#.e.k 6 ",
"  ;.4.u.o.T T o.-.L.P.I.P.J.A.Z.x.j.` _ ' d.f.h.z.n.S.xXo zX  O o qX  tXb.j.f.d.j.v.n.o H.o BX  mX  x.o ` / D E v $.%.<.;.<.} t ",
"  *.3.&...S T p  .K.K.L.H.G.S.V.x.j.f.d.f.h.z.z.b.B.A.cX  cX      sX  9Xn.x.j.j.j.x.B.pX  L. X  a.C.  OX` ~ N :.q.>.%.-.>.3.t   ",
"  y ..v } l Y 9.l K.K.L.H.G.S.V.b.z.h.f.h.h.z.x.n.B.A.cX  xX      iX  qXm.x.z.j.j.m.b.X NXa.a.% a.$.8Xo ( / S U =.=.@...X.&.3 f ",
"  , S Y G y b g k K.K.L.H.G.S.A.n.x.j.h.h.j.z.b.n.V.A.vX  xX      iX  qXn.b.z.z.m.x.B.O O       X . . X d./ ; A B g I V B U k < ",
". t H 8.g d A Z s H.L.L.H.G.S.A.B.b.x.j.z.z.x.x.n.V.A.xX  xX      iX  uXn.b.z.z.z.m.x.. lXq.e.  t.L 6X. _ _ > g Z k C g F A t 3 ",
". a H P A Z g t $ H.L.L.H.G.S.A.B.n.x.x.z.z.x.b.b.B.V.xX  xX+     iX  qXn.b.x.x.v.c.x.qX  L.q.  t.n.o +X' / s e A Z C g x d w $ ",
"O r y $ 6 d < : : J.L.L.H.S.G.A.V.n.b.x.x.x.x.x.b.n.V.cX  cX      iX  qXn.x.z.z.x.j.c.. G.  BX+ fX. x.  ` / 3 f u e 3 u s 5 = . ",
"        O $ y a * P.L.L.H.S.G.A.V.n.b.x.x.z.x.x.x.b.B.fX  kX      iX  qXn.b.z.x.v.n.v.m.  BX&   % rX  m.` ! . > ; >     *   + o ",
"    o X     o     G.L.L.H.S.G.A.B.n.x.x.x.z.z.z.v.x.B.pX  iX      pX  9Xb.b.z.x.b.b.B.V.A.L.L.H.G.A.n.v.f.!             +   .   ",
"1 f w e 4 ;       G.P.H.H.S.G.A.B.B.M.v.x.b.x.j.z.x.b.dX  kX  o   hX  jXV.b.x.c.v.B.B.V.K.L.I.J.H.A.Z.x.d.! X . 7 g m 8 w 3 0 7 ",
"v x &.p r : %   $ G.K.H.H.G.S.A.V.n.x.x.z.z.b.v.x.B.Z.dX. pX@   . pX. 9Xn.z.z.z.b.n.n.b.H.I.L.G.H.S.B.x.f.~ a c - K m  .,.#.p 2 ",
">.6.o.X.{ t : . s S.K.H.H.G.S.A.V.n.x.x.b.h.z.z.b.v.m.kX+ hXlXxXmXdXO rXm.b.c.z.n.v.C.B.K.K.K.H.H.A.n.x.f./ ;.u.E *.a =.w.=.U s ",
"@.u.u.y.-.,   * x A.H.H.H.G.G.A.Z.n.m.x.z.c.z.n.M.m.5XvXzXO     % . pXuX5Xx.v.x.z.n.m.V.G.L.I.H.H.D.n.v.f.~ @.3.,.C v @.#.8.K V ",
"0.$.:.w.[ Z $ X S B.G.G.H.G.G.A.B.m.b.x.z.z.v.m.3XeX@     X       X & .   :X=Xz.f.z.x.B.H.L.L.K.G.A.n.z.f.^ K 1.K a -.x o.,.3...",
"g ;.v S [ u r M z x.A.S.G.G.G.A.Z.b.x.z.x.v.1X&X.       bXvXzXMXmXdXiX  o     +XoXj.x.B.S.I.H.H.K.S.n.z.f.^ D J [ g b | +.8.[ k ",
"n g b @.J m   - Z j.V.A.S.G.S.A.V.B.b.x.M.#X  O @   hXvX    O   o . o qX8X        +Xc.B.G.K.L.G.H.V.n.z.f.) K 1.X.| Z 2.3.E C s ",
"c v l ..8.w     F h.n.D.S.G.S.A.B.n.x.M.$X  .   4XeXo . mXcXbXcXvXiXhX  . -XOX    + <Xm.G.L.L.J.H.A.n.v.d.) n 1.v | V :.;.8.x u ",
"d ..[ l @.t 4   x j.B.V.S.K.A.D.B.x.x.>Xo     ;X    iXxXxXxXxXOXxXiXiX9X0X    OX    o uXG.K.K.K.H.A.B.c.f./ D <.Z B T o.5.F v l ",
"M A { @.@.s s . p j.n.H.H.S.J.A.b.x.j.#Xo   -X    9XiXxXxXmXa.  i.iXiXuX8X;X    OX  . rXK.L.K.U.H.G.B.n.j.` g P b l G +.5.%.| { ",
"B b >.p ..e ,   [ F.V.G.H.S.G.B.x.z.OX    OX  o 0XqXiXmXcXa.      XXpXuX,X;X-X  & 1X  + cXL.K.L.K.D.b.x.z.f.V T J | z O.-.3.-.:.",
"E ,.G P F m o   B C.V.K.I.J.S.A.m.k.XX    OX  ;X,XuXiXxXa.      E iXcX9X0X:X;X=X  8X.   VXY.L.H.H.Z.V.n.x.g.> I V Z A C U $.E 8.",
"A V Z f L *     y V.L.L.H.A.Z.B.c.oXo O XX  OX:X0XuXiXa.      E xXiXC q.0X:X=X;X:X  wXO o NXI.H.P.Z.A.m.v.d.2 j C d z B D Z z L ",
"s Z k , t :     5 fXVXBXxXxXmXMX$X%X  O +X  OX-X,XuXt.  X   q.cXxXr.    E -X;X=X:Xo yX    BXnXmXvXfX9X7X;X+XC $ 4 1 k h h 1 t x ",
"d t j < w . o   1     o X     . @ OX  ).  OX*X-X,XuXC       p.VXr.        V =X;X:X3X@ rXo BXo   X     . .   5 t , e 1 s a 3 r s ",
"= m : 7   o +     yXBXBXvXvXbXzXtX    oX  OX;X=Xi.9XiXi.      V             C ;X-X6X  fX    BXzXvXhX9X0X;X;X  - . * .     : = = ",
"m 7 $ q ;         +     O X   . 8X. . OX  =X:XV   ; iXxXi.          i.; o     C ;X8X  kXo   BX. . X .         -   o o       - : ",
"l } l b Z c j : :           . o qX    :X  ;Xr.      C xXxXE       L iX9X        r.6X  hX    BX      .       $ A *     $ z z x | ",
"e.e.e.<.@...| : 1   o o o +     qXX   -X  :X-XI     . R p.          t.pX,X    C :X5X  pX  @ NX&       o     S Y u 5 # F <.<.w.,.",
"y.w.3.2.2.#.| s   zXBXBXcXvXMXxXyX    OX. >X:X:Xq.      X     L       *.,X;Xr.;X:X8X  iX  . BXzXfXrX0X=Xp.p.<.e.a     B H <.1.3.",
"w.w.3.$.,.=.} 1             X     <XX @X. OX1X=X,XR   +     s.xXp.        =X=X:X:X3X. hX  BX# . X X   o     w.e.s     B F 3.<.q.",
"1.;.=...H <.,.B % vXNXVXMXvXxXbX<X>XO o +X  +X;X0XuXr.    i.xXxXR       R =X;X-X;X  qX    VXNXcXzXuX3XOX).s.*.4.i c   z b $.<.R ",
"o.o.o...} o. .k X G.L.I.G.G.J.Z.M.$X    p.  OX-X6X9XiXa.8.mXxXE       q.7X=X;X:X=X+ yXo   nXU.P.P.A.n.j._ ] G ,.u 4   l X.>.:.1.",
"..#.| | #.o.O.B O H.I.K.P.H.S.B.b.h.).X . +X  XX0XuXiXxXcXxX1.      r.uX6X:X;X:X  :X.   bXY.P.K.H.V.B.j.f.d.i @.u 4   c | ;.<.U ",
"E :.#. .x U U {   H.L.L.H.A.S.V.x.k..X  X +X    4XyXiXcXvX#X      r.iXyX8X;X=X  . 3X  X bXL.L.H.H.A.n.b.j.f.d F h t   u v S E T ",
"U 8.U H K X.O.a   H.L.L.H.G.D.V.x.z.d._.  O @X    tXcXzXcXxXi.X s.sXhX9X3X=X    *X    sXG.I.I.H.H.A.B.b.z.h.f T A s   j b j g j ",
"T K D R Y | v k   H.L.L.H.S.S.A.n.v.h.+X#     =X. o iXNXmXmXMX@XNXpXfX9X3X    :X  O . kXH.I.L.H.K.A.B.m.z.h.g H j ,   k g G z 4 ",
"..:.E F l H E l   H.L.L.H.G.S.A.C.z.h.z.OX  o   4XrX  X vXzXcXxXzXcXpXX o =X;X    . aXV.U.K.K.H.J.A.V.n.z.f.4 Z k $   d k @.3.$.",
"2.%.+.7.1.R G u   H.L.L.H.S.G.A.n.C.v.v.j.*X. .     pXcX.   O o O   . wX7Xo       0XB.D.H.K.L.H.H.A.V.n.j.d.= C :     l K ..,.<.",
"#.>.X.[ } ..@.1   H.K.L.H.G.G.A.V.B.x.x.c.z.$X:Xo   .   bXNXlXxXzXpXkX.   .   :X=Xn.n.A.P.L.I.J.H.A.V.b.j.d.q V -     j @.} 1.q.",
">. . . .o.G L 3   G.K.L.H.G.S.A.Z.B.x.x.j.x.c.c.4XwX          .         + oXoXM.m.n.A.D.H.I.L.G.H.A.B.b.h.` $ =       d Y | $.E ",
"3. . .%.w.;.v *   H.K.L.H.G.S.A.B.n.c.z.b.z.z.x.n.D.dXzXMXo     .   uX7X$Xl.k.j.b.b.B.G.J.L.H.P.H.A.B.x.h.(       O   V T v ;.w.",
"2.v 1.,.y.%.v 4   G.L.L.H.S.G.A.B.n.b.x.z.x.x.x.B.B.A.xX  mXxXvXxXuX  1Xk.f.f.h.z.n.V.A.H.L.L.P.H.A.Z.x.f.( a , *   + h Y v w.y.",
">.$.2.w.@.k Y w   G.K.L.H.G.G.A.V.n.x.x.z.z.x.x.n.B.A.xX  mX      uX  <Xh.d.f.h.x.n.B.A.H.L.L.H.H.A.V.x.h._ r 3 : X - B P  .3.s.",
"P A 1.<.$.B Z <   G.K.L.H.S.S.V.V.n.x.x.z.z.x.x.B.B.A.xX  xX      qX  -Xd.d.d.h.x.n.V.A.H.L.K.H.G.A.V.b.j._ y v 4     F E b E Y ",
"A n L V g Z t M   H.K.L.K.G.S.A.V.n.x.x.z.x.x.x.n.B.S.xX  mX      tX  -Xg.` ` k.x.n.V.A.H.L.L.H.H.A.V.c.h._ b @.u < . a C k H g ",
"t r s t $ m -     G.K.L.K.G.S.A.V.n.x.z.z.x.x.x.n.B.A.cX  VX      iX  =Xd.( _ d.z.n.V.A.H.L.L.H.K.A.V.x.j.' G ,.8 $   $ a t $ w ",
"  . . .     X     G.H.H.H.G.G.A.V.n.b.x.z.z.x.x.n.B.S.xX  zXX     tXX ;X` ( ( d.z.b.V.A.K.L.L.H.H.V.n.z.j.' F ,.c s o     : = ; ",
"m q : : m +   .   A.A.G.G.S.G.D.V.n.x.x.z.x.x.x.n.V.A.cX  mX      uX  &X' / _ ` z.b.B.A.H.L.L.H.H.V.m.j.f.' k | t $   o   O : m ",
"$ e 1 , a * +     A.V.A.S.S.S.A.V.n.x.x.z.z.x.x.n.B.A.NX  xX      qX  >Xd.( ( d.z.b.B.A.H.L.L.H.G.n.x.h.f.d.v [ s   o     = t < ",
"w.1.%.5. .C g ;   n.A.B.A.A.G.A.Z.n.b.z.x.z.x.x.m.D.V.xX. bX      9X@ 6Xd.( / g.h.b.V.A.H.L.K.H.A.C.z.j.d.d.C 8.B 0   ; , &.>.5.",
"w.e.Y Z w.3.| t   j.b.n.A.V.G.A.B.b.z.z.z.z.z.z.b.Z.A.xX. xX    . qXo %Xd._ / d.h.x.V.A.H.L.L.P.G.B.j.f.' ` C U =     ; Z J @.4.",
"U ;.$.E ;.@.;.Z O f.z.x.n.B.G.V.n.x.z.j.v.z.j.z.x.b.V.mXO zX. .   uX. ;Xd./ / d.f.z.n.V.H.L.L.H.S.x.k._ / ` q H *     - V 1.Y H ",
"S | $.<.| T E r   ` x.x.b.n.A.Z.b.z.h.h.j.j.h.j.x.b.B.zX+ zX  +   qX  =Xd.~ Q / f.j.x.V.H.L.L.H.G.x.j._ _ ` = H :     * B R U U ",
"O...T T F D V j   f.M.j.x.n.Z.x.v.h.f.f.f.g.f.d.k.z.n.cX  xX. o   uX  $Xg.] ~ ) ` g.z.B.G.I.L.H.S.x.j.` _ ' . M m     a h J b @.",
"U ..H I U Y z , X _ k.d.` ` f.h.` ( ) ) / _ ( ~ _ d.l.wX  sX.     =X  @X! ! ~ W ! / ` j.n.A.S.A.n.f.` ~ Q Q . $ *     d z &.-.@.",
"E D Y J g c < . X     $ 3 2 2 p ,       @ < h $ w u 2 a q 6 5   X   6 5 , s t t - 7 7 4 a 5 1 a u 0 d h 4 u = h :     a Z f p x ",
"1 = a 4   o     .   o . $ q s , 4   o     $ 7   s ,   e     o     .   s = t 1 s 0 t , , w t 1 t -   = y 5 t :     o     7 6 t , "
};
